<svg xmlns="http://www.w3.org/2000/svg" xmlns:xlink="http://www.w3.org/1999/xlink" width="500" zoomAndPan="magnify" viewBox="0 0 375 374.999991" height="500" preserveAspectRatio="xMidYMid meet" version="1.0"><defs><g/><clipPath id="9a92b39429"><path d="M 68 37.5 L 351 37.5 L 351 338 L 68 338 Z M 68 37.5 " clip-rule="nonzero"/></clipPath><clipPath id="6a8ee3054e"><rect x="0" width="109" y="0" height="170"/></clipPath><clipPath id="9637a4ae86"><rect x="0" width="69" y="0" height="171"/></clipPath><clipPath id="92f7c6fd33"><path d="M 93.132812 182.84375 L 99.449219 182.84375 L 99.449219 189.15625 L 93.132812 189.15625 Z M 93.132812 182.84375 " clip-rule="nonzero"/></clipPath><clipPath id="9eaa27e0a5"><path d="M 96.289062 182.84375 C 94.546875 182.84375 93.132812 184.257812 93.132812 186 C 93.132812 187.742188 94.546875 189.15625 96.289062 189.15625 C 98.035156 189.15625 99.449219 187.742188 99.449219 186 C 99.449219 184.257812 98.035156 182.84375 96.289062 182.84375 Z M 96.289062 182.84375 " clip-rule="nonzero"/></clipPath><clipPath id="994d91b2a4"><path d="M 0.132812 0.84375 L 6.449219 0.84375 L 6.449219 7.15625 L 0.132812 7.15625 Z M 0.132812 0.84375 " clip-rule="nonzero"/></clipPath><clipPath id="96fafe982d"><path d="M 3.289062 0.84375 C 1.546875 0.84375 0.132812 2.257812 0.132812 4 C 0.132812 5.742188 1.546875 7.15625 3.289062 7.15625 C 5.035156 7.15625 6.449219 5.742188 6.449219 4 C 6.449219 2.257812 5.035156 0.84375 3.289062 0.84375 Z M 3.289062 0.84375 " clip-rule="nonzero"/></clipPath><clipPath id="0778b8876a"><rect x="0" width="7" y="0" height="8"/></clipPath><clipPath id="fb54b98504"><path d="M 154.953125 124.59375 L 173.804688 124.59375 L 173.804688 143.445312 L 154.953125 143.445312 Z M 154.953125 124.59375 " clip-rule="nonzero"/></clipPath><clipPath id="de18f6cb0e"><path d="M 164.378906 124.59375 C 159.175781 124.59375 154.953125 128.8125 154.953125 134.019531 C 154.953125 139.226562 159.175781 143.445312 164.378906 143.445312 C 169.585938 143.445312 173.804688 139.226562 173.804688 134.019531 C 173.804688 128.8125 169.585938 124.59375 164.378906 124.59375 Z M 164.378906 124.59375 " clip-rule="nonzero"/></clipPath><clipPath id="38361bb061"><path d="M 0.953125 0.59375 L 19.804688 0.59375 L 19.804688 19.445312 L 0.953125 19.445312 Z M 0.953125 0.59375 " clip-rule="nonzero"/></clipPath><clipPath id="7eeec9e975"><path d="M 10.378906 0.59375 C 5.175781 0.59375 0.953125 4.8125 0.953125 10.019531 C 0.953125 15.226562 5.175781 19.445312 10.378906 19.445312 C 15.585938 19.445312 19.804688 15.226562 19.804688 10.019531 C 19.804688 4.8125 15.585938 0.59375 10.378906 0.59375 Z M 10.378906 0.59375 " clip-rule="nonzero"/></clipPath><clipPath id="2cea5d2139"><rect x="0" width="20" y="0" height="20"/></clipPath><clipPath id="76b1e9342c"><path d="M 161 124 L 184 124 L 184 147 L 161 147 Z M 161 124 " clip-rule="nonzero"/></clipPath><clipPath id="aaf4176081"><path d="M 181.742188 123.097656 L 185.652344 145.367188 L 164.28125 149.117188 L 160.375 126.847656 Z M 181.742188 123.097656 " clip-rule="nonzero"/></clipPath><clipPath id="b5019a2268"><path d="M 183.359375 134.757812 L 177.683594 137.753906 C 176.894531 138.167969 176.464844 139.050781 176.621094 139.929688 L 177.757812 146.253906 C 177.796875 146.460938 177.695312 146.667969 177.511719 146.769531 C 177.324219 146.867188 177.097656 146.835938 176.945312 146.6875 L 172.328125 142.226562 C 171.683594 141.605469 170.714844 141.46875 169.925781 141.890625 L 164.25 144.910156 C 164.0625 145.007812 163.835938 144.976562 163.683594 144.832031 C 163.535156 144.683594 163.496094 144.457031 163.589844 144.269531 L 166.4375 138.492188 C 166.835938 137.691406 166.664062 136.726562 166.019531 136.109375 L 161.371094 131.644531 C 161.222656 131.5 161.179688 131.273438 161.273438 131.085938 C 161.363281 130.898438 161.566406 130.789062 161.773438 130.820312 L 168.140625 131.726562 C 169.027344 131.851562 169.894531 131.394531 170.285156 130.589844 L 173.109375 124.824219 C 173.199219 124.632812 173.402344 124.527344 173.613281 124.554688 C 173.820312 124.585938 173.984375 124.746094 174.019531 124.953125 L 175.105469 131.289062 C 175.257812 132.167969 175.960938 132.851562 176.84375 132.972656 L 183.203125 133.855469 C 183.410156 133.882812 183.574219 134.042969 183.613281 134.25 C 183.648438 134.457031 183.546875 134.660156 183.359375 134.757812 Z M 183.359375 134.757812 " clip-rule="nonzero"/></clipPath><clipPath id="dac88a59f3"><path d="M 0.0390625 0.320312 L 22.839844 0.320312 L 22.839844 22.878906 L 0.0390625 22.878906 Z M 0.0390625 0.320312 " clip-rule="nonzero"/></clipPath><clipPath id="92ec374c6d"><path d="M 20.742188 -0.902344 L 24.652344 21.367188 L 3.28125 25.117188 L -0.625 2.847656 Z M 20.742188 -0.902344 " clip-rule="nonzero"/></clipPath><clipPath id="ef16264512"><path d="M 22.359375 10.757812 L 16.683594 13.753906 C 15.894531 14.167969 15.464844 15.050781 15.621094 15.929688 L 16.757812 22.253906 C 16.796875 22.460938 16.695312 22.667969 16.511719 22.769531 C 16.324219 22.867188 16.097656 22.835938 15.945312 22.6875 L 11.328125 18.226562 C 10.683594 17.605469 9.714844 17.46875 8.925781 17.890625 L 3.25 20.910156 C 3.0625 21.007812 2.835938 20.976562 2.683594 20.832031 C 2.535156 20.683594 2.496094 20.457031 2.589844 20.269531 L 5.4375 14.492188 C 5.835938 13.691406 5.664062 12.726562 5.019531 12.109375 L 0.371094 7.644531 C 0.222656 7.5 0.179688 7.273438 0.273438 7.085938 C 0.363281 6.898438 0.566406 6.789062 0.773438 6.820312 L 7.140625 7.726562 C 8.027344 7.851562 8.894531 7.394531 9.285156 6.589844 L 12.109375 0.824219 C 12.199219 0.632812 12.402344 0.527344 12.613281 0.554688 C 12.820312 0.585938 12.984375 0.746094 13.019531 0.953125 L 14.105469 7.289062 C 14.257812 8.167969 14.960938 8.851562 15.84375 8.972656 L 22.203125 9.855469 C 22.410156 9.882812 22.574219 10.042969 22.613281 10.25 C 22.648438 10.457031 22.546875 10.660156 22.359375 10.757812 Z M 22.359375 10.757812 " clip-rule="nonzero"/></clipPath><clipPath id="bbd773227d"><rect x="0" width="23" y="0" height="23"/></clipPath></defs><rect x="-37.5" width="450" fill="#ffffff" y="-37.499999" height="449.999989" fill-opacity="1"/><rect x="-37.5" width="450" fill="#136f63" y="-37.499999" height="449.999989" fill-opacity="1"/><g clip-path="url(#9a92b39429)"><path fill="#e0ca3c" d="M 130.28125 59.363281 C 104.964844 59.515625 89.105469 63.082031 87.953125 92.476562 C 87.171875 112.367188 112.878906 114.804688 141.757812 117.542969 C 170.363281 120.257812 202.371094 123.292969 210.484375 143.777344 C 212.003906 147.621094 213.351562 151.601562 214.503906 155.65625 C 188.101562 156.523438 144.5 159.949219 133.296875 187.546875 C 123.925781 210.65625 142.730469 236.566406 163.992188 245.027344 C 200.28125 259.472656 223.972656 227.222656 225.46875 193.640625 C 225.929688 183.402344 224.867188 172.519531 222.535156 161.914062 C 257.019531 162.566406 266.578125 175.472656 284.855469 200.1875 C 302.667969 224.257812 310.183594 238.316406 338.644531 250.257812 C 335.550781 249.550781 330.976562 248.742188 324.546875 248.492188 C 313.589844 248.058594 310.894531 315.6875 310.488281 328.140625 C 300.351562 331.640625 274.691406 331.605469 263.203125 329.929688 C 259.476562 329.378906 256.828125 328.796875 256.054688 328.214844 C 255.984375 305.917969 249.746094 266.800781 219.890625 268.097656 C 193.941406 269.207031 178.277344 299.019531 178.277344 322.175781 C 178.277344 326.988281 175.679688 327.703125 169.398438 327.703125 C 152.503906 327.703125 135.589844 327.507812 118.683594 327.507812 C 118.628906 310.160156 118.097656 281.636719 115.308594 253.804688 C 109.292969 193.5 88.476562 181.65625 78.734375 132.300781 C 75.21875 114.480469 73.714844 95.363281 76.40625 80.285156 C 82.332031 47.195312 102.878906 45.992188 122.269531 44.859375 C 124.984375 44.699219 127.671875 44.546875 130.289062 44.316406 Z M 166.554688 128.015625 C 164.003906 128.015625 161.945312 130.082031 161.945312 132.625 C 161.945312 135.175781 164.007812 137.238281 166.554688 137.238281 C 169.105469 137.238281 171.164062 135.171875 171.164062 132.625 C 171.164062 130.074219 169.097656 128.015625 166.554688 128.015625 Z M 133.417969 65.632812 C 135.148438 65.632812 136.558594 64.230469 136.558594 62.496094 L 136.53125 40.484375 C 136.328125 38.765625 134.765625 37.539062 133.050781 37.742188 C 129.40625 38.183594 125.683594 38.410156 121.925781 38.621094 C 100.136719 39.898438 77.046875 41.246094 70.257812 79.195312 C 67.40625 95.132812 68.9375 115.066406 72.582031 133.515625 C 82.382812 183.15625 103.125 194.734375 109.089844 254.429688 C 111.996094 283.574219 112.417969 313.808594 112.417969 330.65625 C 112.417969 332.382812 113.820312 333.792969 115.554688 333.792969 C 133.503906 333.792969 151.46875 333.984375 169.402344 333.984375 C 180.117188 333.984375 184.550781 332.464844 184.550781 322.1875 C 184.550781 302.464844 197.714844 275.339844 220.160156 274.359375 C 245.660156 273.257812 249.789062 310.757812 249.789062 328.78125 C 249.789062 334.089844 258.441406 335.574219 262.308594 336.132812 C 274.035156 337.847656 306.253906 337.976562 315.109375 332.925781 C 319.652344 330.328125 317.109375 254.460938 324.3125 254.742188 C 332.085938 255.054688 366.832031 255.988281 341.597656 244.695312 C 313.957031 233.109375 307.246094 219.929688 289.894531 196.472656 C 269.90625 169.449219 259.6875 155.648438 220.988281 155.558594 C 219.6875 150.742188 218.117188 146.019531 216.324219 141.484375 C 206.804688 117.445312 172.777344 114.214844 142.355469 111.332031 C 116.597656 108.886719 93.664062 106.707031 94.214844 92.730469 C 95.285156 65.546875 110.648438 65.636719 133.410156 65.636719 Z M 219.222656 193.378906 C 217.925781 222.398438 198.367188 251.996094 166.296875 239.226562 C 148.34375 232.078125 131.097656 209.640625 139.101562 189.90625 C 149.054688 165.382812 192.46875 162.4375 216.121094 161.933594 C 216.121094 161.933594 219.757812 181.585938 219.222656 193.378906 Z M 219.222656 193.378906 " fill-opacity="1" fill-rule="nonzero"/></g><g transform="matrix(1, 0, 0, 1, 147, 110)"><g clip-path="url(#6a8ee3054e)"><g fill="#e0ca3c" fill-opacity="1"><g transform="translate(8.346757, 98.374647)"><g><path d="M 48.3125 -49.703125 C 51.882812 -47.785156 54.921875 -45.09375 57.421875 -41.625 C 59.929688 -38.164062 61.863281 -34.359375 63.21875 -30.203125 C 64.570312 -26.046875 65.25 -21.851562 65.25 -17.625 C 65.25 -9.832031 64.554688 -2.554688 63.171875 4.203125 C 61.785156 10.972656 59.570312 16.914062 56.53125 22.03125 C 53.5 27.144531 49.503906 31.132812 44.546875 34 C 39.597656 36.875 33.5625 38.3125 26.4375 38.3125 C 20.164062 38.3125 14.585938 37.238281 9.703125 35.09375 C 4.816406 32.957031 0.988281 30.003906 -1.78125 26.234375 C -4.550781 22.472656 -5.9375 18.25 -5.9375 13.5625 C -5.9375 8.414062 -4.878906 4.140625 -2.765625 0.734375 C -0.660156 -2.660156 2.203125 -5.332031 5.828125 -7.28125 C 9.460938 -9.226562 13.640625 -10.546875 18.359375 -11.234375 C 23.085938 -11.929688 28.109375 -12.144531 33.421875 -11.875 C 38.734375 -11.613281 44.0625 -10.988281 49.40625 -10 C 49.539062 -11.125 49.640625 -12.242188 49.703125 -13.359375 C 49.773438 -14.484375 49.84375 -15.675781 49.90625 -16.9375 C 49.96875 -18.976562 49.832031 -21.054688 49.5 -23.171875 C 49.175781 -25.285156 48.71875 -27.332031 48.125 -29.3125 C 46.40625 -26.9375 44.0625 -24.753906 41.09375 -22.765625 C 38.125 -20.785156 34.625 -19.21875 30.59375 -18.0625 C 26.570312 -16.914062 22.117188 -16.375 17.234375 -16.4375 C 12.546875 -16.4375 8.8125 -17.722656 6.03125 -20.296875 C 3.257812 -22.867188 1.445312 -26.316406 0.59375 -30.640625 C -0.257812 -34.960938 -0.144531 -39.78125 0.9375 -45.09375 C 2.03125 -50.414062 4.09375 -55.78125 7.125 -61.1875 L 27.03125 -61.1875 C 24.914062 -57.6875 23.015625 -54.15625 21.328125 -50.59375 C 19.648438 -47.03125 18.445312 -43.765625 17.71875 -40.796875 C 17 -37.828125 16.984375 -35.429688 17.671875 -33.609375 C 18.367188 -31.796875 20.003906 -30.890625 22.578125 -30.890625 C 26.535156 -30.890625 29.71875 -31.566406 32.125 -32.921875 C 34.539062 -34.273438 36.0625 -36.109375 36.6875 -38.421875 C 37.3125 -40.734375 36.929688 -43.273438 35.546875 -46.046875 L 35.9375 -46.046875 Z M 67.53125 -4.859375 C 72.414062 -3.140625 77.429688 -0.878906 82.578125 1.921875 C 87.722656 4.734375 92.972656 8.085938 98.328125 11.984375 L 98.328125 39.109375 C 91.191406 32.640625 84.832031 27.207031 79.25 22.8125 C 73.675781 18.425781 68.546875 14.847656 63.859375 12.078125 C 64.785156 9.441406 65.546875 6.71875 66.140625 3.90625 C 66.734375 1.101562 67.195312 -1.816406 67.53125 -4.859375 Z M 26.53125 22.578125 C 31.414062 22.578125 35.441406 20.875 38.609375 17.46875 C 41.785156 14.070312 44.296875 9.734375 46.140625 4.453125 C 42.441406 3.460938 38.5625 2.769531 34.5 2.375 C 30.445312 1.976562 26.65625 1.992188 23.125 2.421875 C 19.59375 2.847656 16.71875 3.851562 14.5 5.4375 C 12.289062 7.03125 11.1875 9.3125 11.1875 12.28125 C 11.1875 15.25 12.519531 17.707031 15.1875 19.65625 C 17.863281 21.601562 21.644531 22.578125 26.53125 22.578125 Z M 26.53125 22.578125 "/></g></g></g></g></g><g transform="matrix(1, 0, 0, 1, 90, 109)"><g clip-path="url(#9637a4ae86)"><g fill="#e0ca3c" fill-opacity="1"><g transform="translate(3.528285, 99.847193)"><g><path d="M 60.921875 -64.578125 C 60.960938 -62.003906 60.519531 -58.941406 59.59375 -55.390625 C 58.664062 -51.835938 57.234375 -48.097656 55.296875 -44.171875 C 53.359375 -40.242188 50.820312 -36.367188 47.6875 -32.546875 C 44.5625 -28.734375 40.847656 -25.171875 36.546875 -21.859375 C 32.242188 -18.546875 27.289062 -15.765625 21.6875 -13.515625 C 16.09375 -11.273438 9.796875 -9.820312 2.796875 -9.15625 L 2.484375 -26.78125 C 6.828125 -27.257812 10.710938 -28.023438 14.140625 -29.078125 C 13.492188 -31.578125 12.941406 -34.425781 12.484375 -37.625 C 12.035156 -40.820312 11.769531 -44.859375 11.6875 -49.734375 C 11.59375 -54.679688 12.113281 -59.570312 13.25 -64.40625 C 14.382812 -69.25 16.085938 -73.640625 18.359375 -77.578125 C 20.628906 -81.515625 23.394531 -84.679688 26.65625 -87.078125 C 29.914062 -89.484375 33.625 -90.722656 37.78125 -90.796875 C 42.914062 -90.890625 47.1875 -89.84375 50.59375 -87.65625 C 54.007812 -85.476562 56.5625 -82.40625 58.25 -78.4375 C 59.9375 -74.476562 60.828125 -69.859375 60.921875 -64.578125 Z M 29.046875 -36.765625 C 32.753906 -39.679688 35.71875 -42.820312 37.9375 -46.1875 C 40.164062 -49.5625 41.757812 -52.890625 42.71875 -56.171875 C 43.675781 -59.453125 44.132812 -62.28125 44.09375 -64.65625 C 43.976562 -71 41.972656 -74.132812 38.078125 -74.0625 C 36.234375 -74.03125 34.664062 -73.175781 33.375 -71.5 C 32.082031 -69.832031 31.03125 -67.671875 30.21875 -65.015625 C 29.40625 -62.359375 28.828125 -59.488281 28.484375 -56.40625 C 28.148438 -53.332031 28.007812 -50.375 28.0625 -47.53125 C 28.09375 -45.5 28.191406 -43.578125 28.359375 -41.765625 C 28.535156 -39.953125 28.765625 -38.285156 29.046875 -36.765625 Z M 34.65625 -17.265625 C 37.601562 -11.046875 41.460938 -6.410156 46.234375 -3.359375 C 51.015625 -0.316406 55.953125 1.523438 61.046875 2.171875 L 61.4375 23.859375 C 57.59375 23.460938 53.628906 22.425781 49.546875 20.75 C 45.460938 19.070312 41.53125 16.78125 37.75 13.875 C 33.96875 10.96875 30.5 7.476562 27.34375 3.40625 C 24.195312 -0.65625 21.585938 -5.273438 19.515625 -10.453125 C 22.015625 -11.023438 24.015625 -11.65625 25.515625 -12.34375 C 27.023438 -13.03125 28.445312 -13.78125 29.78125 -14.59375 C 31.125 -15.414062 32.75 -16.304688 34.65625 -17.265625 Z M 34.65625 -17.265625 "/></g></g></g></g></g><g clip-path="url(#92f7c6fd33)"><g clip-path="url(#9eaa27e0a5)"><g transform="matrix(1, 0, 0, 1, 93, 182)"><g clip-path="url(#0778b8876a)"><g clip-path="url(#994d91b2a4)"><g clip-path="url(#96fafe982d)"><path fill="#e0ca3c" d="M 0.132812 0.84375 L 6.449219 0.84375 L 6.449219 7.15625 L 0.132812 7.15625 Z M 0.132812 0.84375 " fill-opacity="1" fill-rule="nonzero"/></g></g></g></g></g></g><g clip-path="url(#fb54b98504)"><g clip-path="url(#de18f6cb0e)"><g transform="matrix(1, 0, 0, 1, 154, 124)"><g clip-path="url(#2cea5d2139)"><g clip-path="url(#38361bb061)"><g clip-path="url(#7eeec9e975)"><path fill="#136f63" d="M 0.953125 0.59375 L 19.804688 0.59375 L 19.804688 19.445312 L 0.953125 19.445312 Z M 0.953125 0.59375 " fill-opacity="1" fill-rule="nonzero"/></g></g></g></g></g></g><g clip-path="url(#76b1e9342c)"><g clip-path="url(#aaf4176081)"><g clip-path="url(#b5019a2268)"><g transform="matrix(1, 0, 0, 1, 161, 124)"><g clip-path="url(#bbd773227d)"><g clip-path="url(#dac88a59f3)"><g clip-path="url(#92ec374c6d)"><g clip-path="url(#ef16264512)"><path fill="#e0ca3c" d="M 21.558594 -2.066406 L 25.816406 22.183594 L 2.734375 26.234375 L -1.519531 1.984375 Z M 21.558594 -2.066406 " fill-opacity="1" fill-rule="nonzero"/></g></g></g></g></g></g></g></g></svg>